<svg width="993" height="349" viewBox="0 0 993 349" fill="none" xmlns="http://www.w3.org/2000/svg">
<path fill-rule="evenodd" clip-rule="evenodd" d="M843.561 111.708C841.608 112.4 839.205 114.16 838.221 115.62C834.078 121.767 829.645 127.203 826.08 130.509C821.728 134.544 817.798 140.818 816.655 145.554C816.224 147.341 815.447 148.7 814.929 148.575C814.412 148.45 814.077 149.032 814.187 149.87C814.513 152.374 808.486 157.032 790.79 167.951C781.563 173.645 773.477 179.216 772.82 180.33C772.164 181.445 771.001 182.206 770.235 182.021C769.469 181.836 768.683 182.345 768.488 183.153C768.127 184.647 764.426 187.026 763.544 186.329C763.278 186.119 761.332 186.919 759.22 188.106C749.656 193.483 747.341 194.721 742.648 196.965C736.464 199.923 734.624 200.958 733.304 202.218C731.289 204.143 727.944 204.492 726.009 202.981C723.75 201.214 722.599 196.569 724.383 196.418C725.126 196.354 725.026 195.416 724.121 193.935C723.321 192.626 722.829 190.684 723.029 189.62C723.831 185.356 719.658 167.437 716.778 162.777C712.973 156.619 713.75 153.014 720.63 144.902C723.395 141.642 725.849 138.183 726.083 137.217C726.316 136.251 726.89 135.553 727.359 135.666C727.828 135.779 729.684 131.945 731.486 127.147C735.792 115.676 735.851 109.919 731.716 104.541C729.479 101.632 727.713 100.456 723.898 99.3387C718.351 97.7148 711.843 97.7538 708.551 99.431C707.34 100.048 705.393 100.62 704.226 100.703C701.346 100.906 693.553 106.348 690.839 110.049C686.464 116.016 685.23 127.23 687.639 139.088C688.448 143.071 689.726 147.209 690.478 148.284C691.23 149.36 691.972 151.824 692.125 153.759C692.387 157.066 692.132 157.454 687.878 160.213C685.39 161.828 682.722 163.798 681.952 164.59C678.698 167.936 638.627 192.834 631.969 195.649C623.018 199.432 611.136 205.85 606.998 209.138C604.629 211.02 601.972 212.386 601.093 212.174C600.214 211.962 598.619 212.388 597.549 213.119C595.215 214.715 592.247 216.119 588.288 217.499C586.676 218.061 584.478 219.058 583.406 219.713C582.03 220.553 581.009 220.521 579.945 219.602C579.114 218.885 577.846 218.291 577.127 218.281C576.251 218.27 576.239 218.176 577.092 217.997C577.911 217.825 577.688 216.89 576.465 215.374C574.904 213.437 574.869 213.087 576.272 213.406C577.211 213.621 578.005 213.685 578.038 213.55C578.495 211.656 577.208 198.292 576.303 195.53C575.58 193.325 575.506 190.395 576.115 188.227C576.676 186.235 576.731 184.197 576.238 183.699C575.744 183.2 575.345 182.142 575.349 181.347C575.355 180.552 574.775 178.894 574.061 177.665C573.347 176.434 573.142 175.053 573.605 174.595C574.067 174.137 574.089 173.033 573.652 172.141C573.215 171.25 573.167 168.547 573.545 166.136C573.924 163.723 573.96 160.046 573.626 157.964C572.321 149.819 569.682 139.228 568.706 138.209C568.141 137.621 567.828 136.52 568.011 135.763C568.193 135.007 567.606 133.731 566.707 132.929C565.807 132.126 565.007 130.558 564.928 129.442C564.849 128.327 563.058 125.548 560.949 123.267C557.09 119.096 553.347 117.751 545.977 117.889C542.784 117.948 531.996 124.232 530.638 126.823C529.997 128.047 528.955 128.923 528.323 128.77C526.858 128.416 516.776 134.939 516.394 136.488C516.036 137.946 499.819 148.636 498.462 148.309C497.913 148.176 496.46 148.752 495.233 149.589C492.278 151.603 483.373 154.058 482.44 153.115C482.035 152.707 481.586 152.861 481.441 153.459C481.297 154.057 480.896 154.277 480.552 153.948C480.207 153.62 478.971 153.465 477.805 153.607C474.787 153.973 471.328 150.658 470.725 146.822C469.957 141.93 476.402 124.442 482.836 113.967C484.567 111.148 485.803 103.571 484.953 100.98C484.718 100.262 482.75 98.9745 480.578 98.1171C477.123 96.7544 476.129 96.8219 472.63 98.6602C469.956 100.065 468.875 101.163 469.369 101.971C469.863 102.78 469.546 103.811 468.412 105.082C467.48 106.127 466.35 108.144 465.902 109.565C465.41 111.123 463.186 113.334 460.297 115.137C454.39 118.826 448.292 123.536 445.817 126.323C444.791 127.48 441.983 129.688 439.579 131.232C428.06 138.629 426.035 140.073 425.795 141.069C425.652 141.66 425.217 141.821 424.829 141.429C424.44 141.036 422.847 141.55 421.288 142.571C419.729 143.592 418.129 144.348 417.734 144.253C416.821 144.033 411.549 146.635 408.086 149.015C406.627 150.018 404.745 151.184 403.903 151.606C403.061 152.029 399.143 154.328 395.196 156.714C391.25 159.101 387.807 160.704 387.545 160.275C387.284 159.846 386.231 160.235 385.207 161.139C384.034 162.175 382.753 162.424 381.744 161.813C380.676 161.167 379.433 161.511 378.008 162.85C376.835 163.952 374.991 164.916 373.911 164.992C372.832 165.069 371.247 166.027 370.389 167.123C368.677 169.309 358.942 170.676 358.307 168.82C357.836 167.441 355.426 167.431 353.69 168.8C352.657 169.615 351.899 169.522 350.73 168.44C349.547 167.344 348.816 167.273 347.777 168.153C346.205 169.483 338.873 168.748 339.224 167.295C339.355 166.752 338.191 166.316 336.513 166.282C334.464 166.24 333.513 165.767 333.377 164.724C333.269 163.901 332.006 162.659 330.569 161.963C329.132 161.269 327.466 160.17 326.866 159.521C325.651 158.209 326.373 150.625 327.595 151.86C328.016 152.285 328.462 152.215 328.586 151.703C328.709 151.192 331.304 148.266 334.352 145.202C337.401 142.138 340.229 138.722 340.636 137.613C341.044 136.502 342.749 134.011 344.422 132.076C347.514 128.502 352.362 121.019 355.873 114.404C356.937 112.398 358.8 108.912 360.013 106.659C362.487 102.058 365.357 95.5429 367.999 88.5269C368.976 85.9337 370.906 81.7703 372.288 79.2749C373.671 76.7798 375.594 72.332 376.564 69.3903C377.533 66.4496 379.007 63.278 379.842 62.3427C381.615 60.3533 385.109 53.8628 386.589 49.8079C392.405 33.8665 394.246 24.0639 393.849 11.1697C393.676 5.56055 393.253 4.35877 390.737 2.32462C388.499 0.514987 387.155 0.0556203 384.919 0.334758C383.319 0.534995 381.261 0.478496 380.345 0.210161C378.174 -0.428045 371.025 1.46097 370.712 2.75578C370.579 3.30695 369.444 4.10079 368.189 4.51797C366.935 4.93539 366.067 5.76393 366.262 6.35828C366.457 6.95263 366.207 7.33958 365.705 7.2185C365.204 7.09766 363.895 8.2856 362.796 9.85966C361.697 11.4337 357.51 16.761 353.492 21.6991C349.474 26.6371 345.52 32.5102 344.703 34.7511C343.888 36.9914 342.841 38.7333 342.377 38.6214C341.446 38.3966 334.58 46.3435 333.185 49.2615C332.699 50.2759 331.46 53.6801 330.431 56.8265C329.402 59.9729 327.651 64.5632 326.539 67.027C325.427 69.491 324.534 72.3317 324.553 73.3383C324.572 74.346 323.731 75.6931 322.684 76.3324C321.637 76.9725 320.409 79.033 319.956 80.911C319.503 82.7881 318.627 84.4901 318.011 84.6923C317.395 84.8943 316.812 86.2968 316.718 87.8078C316.623 89.3187 315.746 91.509 314.768 92.6751C313.552 94.1232 311.662 100.332 308.795 112.299C304.777 129.071 304.639 130.157 305.511 138.252C306.01 142.899 306.634 146.985 306.895 147.331C307.157 147.677 307.764 149.444 308.242 151.257C309.554 156.224 308.185 160.775 304.679 163.103C303.038 164.193 301.56 165.405 301.395 165.796C301.23 166.186 300.912 167.026 300.687 167.662C300.462 168.299 299.232 169.059 297.952 169.353C294.313 170.189 284.284 177.911 282.382 181.342C280.872 184.066 271.026 191.137 269.318 190.725C268.718 190.58 247.907 203.595 242.021 207.796C240.54 208.853 239.814 209.141 240.408 208.436C241.206 207.486 240.873 207.473 239.128 208.386C237.831 209.065 236.548 209.256 236.277 208.813C236.005 208.369 235.671 208.473 235.533 209.045C235.395 209.615 233.823 210.228 232.041 210.403C230.259 210.58 228.969 211.24 229.176 211.87C229.383 212.5 228.959 212.873 228.234 212.698C227.508 212.523 224.784 213.717 222.18 215.352C219.576 216.986 216.683 218.14 215.753 217.915C214.823 217.691 213.275 218.201 212.313 219.049C211.325 219.92 205.766 221.072 199.527 221.697C189.714 222.682 187.637 222.561 180.79 220.611C175.184 219.014 172.694 217.84 171.637 216.294C170.211 214.209 170.263 214.062 174.411 208.477C176.736 205.346 178.939 202.856 179.306 202.945C179.964 203.104 187.551 193.893 193.795 185.354C197.229 180.658 206.204 164.323 206.892 161.515C207.122 160.579 208.321 158.667 209.557 157.268C211.273 155.326 212.436 152.005 214.473 143.229C217.82 128.815 217.023 123.566 210.494 116.995C208.21 114.698 205.741 112.864 205.008 112.918C204.275 112.974 201.654 112.762 199.184 112.447C189.108 111.16 180.923 114.887 174.766 123.563C172.847 126.269 170.461 129.268 169.464 130.231C168.469 131.194 167.286 132.76 166.837 133.712C166.389 134.663 164.77 137.687 163.24 140.43C161.71 143.172 159.893 146.437 159.2 147.684C158.509 148.932 157.518 150.313 156.997 150.753C156.476 151.193 155.122 154.04 153.988 157.078C152.854 160.117 150.807 164.533 149.439 166.891C146.532 171.904 143.336 182.939 144.12 185.259C144.418 186.144 144.453 188.013 144.195 189.413C143.938 190.813 144.043 193.616 144.429 195.642C144.814 197.667 145.168 200.26 145.213 201.402C145.259 202.545 146.017 204.833 146.897 206.488C150.074 212.465 150.484 217.643 147.848 218.508C147.223 218.713 146.857 219.323 147.035 219.864C147.212 220.405 146.439 221.086 145.317 221.379C144.194 221.671 141.285 224.148 138.853 226.886C136.186 229.886 129.54 234.94 122.109 239.618C115.332 243.883 106.683 249.552 102.889 252.216C99.0964 254.879 94.2419 257.482 92.1018 258C87.6816 259.068 81.8444 261.878 81.5555 263.075C81.4492 263.515 80.0713 264.467 78.4924 265.191C76.9147 265.914 75.6372 266.89 75.6545 267.359C75.6906 268.334 69.4133 272.089 68.2244 271.802C67.7928 271.698 65.1505 272.676 62.3526 273.975C59.5545 275.275 56.7062 276.208 56.0236 276.048C55.3397 275.889 51.4106 277.655 47.2897 279.973C41.8783 283.017 38.6911 284.131 35.8116 283.982C33.6189 283.869 31.3172 283.947 30.697 284.156C30.0759 284.364 29.1247 284.456 28.5818 284.361C28.0392 284.265 25.6022 284.337 23.1659 284.522C16.7885 285.005 13.1701 282.692 11.6052 277.132C10.0645 271.658 7.72826 270.938 4.42976 274.92C-0.576712 280.966 -0.372144 289.251 4.8772 293.101C13.3973 299.347 24.7674 299.417 48.0189 293.368C49.8344 292.896 53.199 291.321 55.495 289.868C57.7912 288.414 60.1916 287.352 60.8293 287.506C61.467 287.659 66.6073 285.082 72.2536 281.776C77.8998 278.471 86.576 273.506 91.5349 270.743C96.4939 267.979 101.217 265.275 102.031 264.734C102.845 264.191 111.522 258.718 121.314 252.57C131.106 246.421 140.164 240.095 141.444 238.512C142.724 236.929 145.266 234.695 147.093 233.548C148.919 232.4 151.942 230.312 153.81 228.906L157.208 226.351L163.431 229.498C169.46 232.546 186.681 237.284 188.987 236.529C189.594 236.33 193.56 236.139 197.802 236.105C205.144 236.046 208.682 235.103 215.383 231.416C217.018 230.516 221.008 229.025 224.246 228.104C227.486 227.184 231.194 225.435 232.487 224.22C235.64 221.253 238.043 219.84 238.544 220.657C239.213 221.752 282.887 194.669 284.342 192.257C285.076 191.04 286.588 189.57 287.702 188.99C291.325 187.104 303.904 177.242 304.188 176.066C304.626 174.251 312.611 169.285 314.398 169.716C316.57 170.241 321.243 174.356 320.5 175.091C319.792 175.793 322.456 176.638 337.099 180.358C348.759 183.321 353.527 183.485 363.625 181.276C370.529 179.766 384.546 174.444 385.582 172.94C386.06 172.246 387.106 171.836 387.905 172.029C388.705 172.222 390.039 171.618 390.87 170.687C391.701 169.756 392.988 169.141 393.732 169.321C394.474 169.5 407.577 162.131 422.847 152.944C448.336 137.61 450.796 136.356 452.851 137.64C454.474 138.655 454.921 139.734 454.479 141.567C453.575 145.313 454.969 156.368 456.731 159.429C459.657 164.509 464.774 168.053 470.144 168.72C477.662 169.653 478.121 169.643 481.38 168.479C483.058 167.88 484.594 167.658 484.794 167.986C485.194 168.64 491.464 166.64 496.757 164.168C505.679 160.003 530.334 143.393 538.647 135.948C542.086 132.869 542.988 132.549 545.77 133.42C548.269 134.202 549.581 135.645 551.845 140.099C557.122 150.479 559.102 160.282 560.365 182.283C560.662 187.447 561.363 195.486 561.924 200.147C562.485 204.809 562.915 209.428 562.88 210.412C562.844 211.395 562.971 212.673 563.16 213.249C563.349 213.826 563.261 216.002 562.965 218.084C562.669 220.167 562.195 224.267 561.91 227.193C561.451 231.911 560.944 233.015 557.443 236.917C555.271 239.338 553.156 241.469 552.744 241.652C552.33 241.835 551.519 242.692 550.941 243.555C550.362 244.418 549.103 245.227 548.143 245.352C546.081 245.621 537.539 251.201 533.304 255.045C531.664 256.532 526.696 261.761 522.262 266.665C517.828 271.567 512.538 277.371 510.505 279.561C508.472 281.751 506.827 284.273 506.847 285.164C506.868 286.056 505.429 289.131 503.649 291.999C501.87 294.866 500.492 297.817 500.588 298.557C500.684 299.296 499.905 299.962 498.856 300.035C497.807 300.109 496.648 301.144 496.279 302.335C487.933 329.307 488.377 327.17 489.708 333.999C490.934 340.293 492.897 344.48 494.841 344.949C495.398 345.084 495.769 345.546 495.665 345.976C495.561 346.406 497.429 347.16 499.816 347.652C503.529 348.417 504.832 348.107 508.821 345.507C511.387 343.837 514.55 341.403 515.851 340.101C517.152 338.799 519.926 336.062 522.016 334.021C529.24 326.962 547.846 304.471 548.46 302.055C548.625 301.404 549.94 299.072 551.382 296.874C552.824 294.676 554.544 291.388 555.205 289.567C555.866 287.747 558.051 283.428 560.063 279.97C562.073 276.512 563.825 272.292 563.955 270.59C564.084 268.887 565.048 266.56 566.097 265.417C567.344 264.058 568.834 259.951 570.399 253.569C572.125 246.526 573.319 243.369 574.676 242.256C575.712 241.409 576.743 240.015 576.967 239.16C577.418 237.438 626.381 207.991 628.102 208.406C628.696 208.55 633.039 206.241 637.751 203.277C646.931 197.503 669.177 184.839 674.01 182.635C677.339 181.118 687.062 175.279 687.198 174.716C687.247 174.512 689.408 173.005 692.001 171.367C697.761 167.728 701.261 168.156 702.813 172.69C703.393 174.387 704.083 176.057 704.344 176.403C705.172 177.498 707.978 187.567 707.418 187.432C707.124 187.361 707.078 189.202 707.316 191.523C707.554 193.843 707.593 195.704 707.402 195.658C707.211 195.612 707.167 197.624 707.306 200.129C707.732 207.79 704.336 217.408 698.645 224.657C695.936 228.109 693.349 230.997 692.897 231.077C690.573 231.486 691.413 242.273 694.042 245.785C694.798 246.794 696.355 247.485 697.849 247.471C700.484 247.448 702.972 245.5 713.53 235.2C717.016 231.798 721.265 228.025 722.972 226.814C726.661 224.199 754.377 207.229 770.216 197.889C776.392 194.247 787.307 187.595 794.47 183.106C802.772 177.904 807.857 175.31 808.493 175.952C809.042 176.506 809.87 176.834 810.335 176.682C810.798 176.531 813.237 178.327 815.754 180.675C822.186 186.675 825.19 188.222 834.635 190.397C842.6 192.231 847.638 192.429 860.111 191.397C867.422 190.793 887.142 187.648 892.208 186.28C894.327 185.707 899.677 184.689 904.097 184.016C908.519 183.344 913.739 182.149 915.699 181.362C917.658 180.575 919.638 180.022 920.098 180.133C921.382 180.443 929.504 178.262 930.913 177.229C931.6 176.725 935.35 175.572 939.247 174.667C943.143 173.762 947.082 172.783 948.001 172.492C948.921 172.2 954.927 170.329 961.35 168.334C967.772 166.339 973.315 164.471 973.667 164.184C974.019 163.898 976.449 163.155 979.066 162.536C985.187 161.088 991.743 157.488 992.276 155.283C992.947 152.503 988.488 148.182 984.187 147.446C981.051 146.908 979.355 147.508 973.83 151.108C969.919 153.657 966.01 155.388 964.248 155.351C962.612 155.317 960.889 155.848 960.419 156.53C959.949 157.211 958.936 157.618 958.166 157.432C957.397 157.247 954.449 157.692 951.616 158.423C948.782 159.153 945.763 159.582 944.906 159.375C944.048 159.168 942.344 159.682 941.119 160.518C939.893 161.354 938.109 161.849 937.154 161.619C936.199 161.388 935.042 161.572 934.582 162.027C934.123 162.481 933.074 162.691 932.253 162.493C931.431 162.295 929.4 162.674 927.738 163.335C921.607 165.777 892.568 172.285 890.934 171.585C890.004 171.187 886.565 171.55 883.29 172.393C880.016 173.237 876.702 173.773 875.926 173.586C875.151 173.399 871.897 174.007 868.694 174.938C865.492 175.868 862.298 176.233 861.595 175.748C860.892 175.264 859.641 175.372 858.814 175.988C857.988 176.606 856.508 176.679 855.524 176.15C854.54 175.622 853.627 175.642 853.494 176.193C853.361 176.744 849.933 176.716 845.875 176.13C839.202 175.167 838.051 174.704 833.795 171.271C831.209 169.185 828.988 166.684 828.862 165.715C828.496 162.905 831.327 157.436 834.517 154.785C836.13 153.444 838.963 150.425 840.811 148.075C842.658 145.726 844.767 143.321 845.496 142.733C846.226 142.145 847.064 141.19 847.358 140.611C847.653 140.032 849.776 136.596 852.076 132.974C857.566 124.33 858.939 118.767 856.446 115.261C853.908 111.694 848.113 110.096 843.561 111.708ZM380.822 23.4694C380.513 33.7365 374.967 50.9013 369.028 59.971C368.067 61.4364 366.918 63.9367 366.473 65.5265C366.028 67.1166 365.12 68.9363 364.454 69.5709C363.592 70.3935 363.642 70.5937 364.628 70.2702C365.574 69.9605 365.344 70.5869 363.896 72.257C362.733 73.5985 360.699 78.1348 359.375 82.3374C356.632 91.045 352.269 100.94 350.974 101.394C350.224 101.658 346.176 109.429 344.906 113.043C344.677 113.695 344.095 114.133 343.614 114.017C343.133 113.901 342.805 114.747 342.886 115.898C342.968 117.05 342.602 117.887 342.074 117.76C341.545 117.632 340.508 118.771 339.769 120.29C339.03 121.809 338.109 122.975 337.725 122.882C337.341 122.79 336.07 124.219 334.9 126.058C333.732 127.898 330.96 131.859 328.741 134.859C323.853 141.465 321.309 141.594 319.658 135.318C318.708 131.703 319.039 129.514 322.847 114.228C325.185 104.846 328.1 95.0982 329.328 92.5655C330.554 90.0326 332.293 86.0546 333.192 83.7254C334.09 81.396 336.04 77.3724 337.525 74.7836C339.01 72.1938 340.157 69.1148 340.074 67.9406C339.987 66.7005 340.359 65.9096 340.961 66.0551C341.532 66.1929 342.208 65.4374 342.464 64.3759C343.144 61.5588 355.469 42.2847 362.052 33.7439C370.922 22.2359 374.006 19.0816 376.907 18.5535C378.547 18.255 380.135 18.0325 380.437 18.0589C380.738 18.0863 380.911 20.521 380.822 23.4694ZM720.131 115.562C721.659 118.516 721.704 118.182 719.019 123.997C715.547 131.521 715.246 132.073 712.559 135.844C710.619 138.567 709.279 139.451 707.238 139.356C703.828 139.194 702.746 137.792 702.77 133.566C702.78 131.741 702.757 130.01 702.719 129.718C701.629 121.348 702.8 118.365 708.528 114.918C714.422 111.371 718.067 111.574 720.131 115.562ZM203.834 129.484C205.025 130.997 205.613 132.148 205.138 132.042C204.662 131.936 204.667 132.284 205.146 132.815C206.047 133.814 201.346 149.556 198.775 154.151C196.483 158.248 196.08 159.114 194.632 163.073C193.843 165.228 191.903 168.695 190.321 170.776C188.738 172.858 186.79 176.487 185.993 178.841C185.195 181.195 184.123 182.929 183.611 182.697C182.486 182.186 169.786 196.423 166.855 201.482C165.705 203.468 164.19 204.954 163.488 204.785C161.343 204.267 159.189 194.004 159.975 188.05C161.694 175.031 167.699 156.031 170.7 154.112C171.31 153.721 172.088 152.251 172.428 150.843C172.768 149.435 173.422 148.054 173.881 147.773C174.34 147.492 175.094 146.324 175.557 145.176C176.019 144.03 177.33 141.927 178.471 140.504C179.612 139.081 181.872 136.154 183.493 134C186.516 129.981 192.492 125.368 194.802 125.27C197.954 125.137 201.835 126.949 203.834 129.484ZM554.918 259.753C554.832 261.923 553.853 263.917 551.652 266.401C549.924 268.352 548.386 270.382 548.234 270.911C548.084 271.44 547.476 272.347 546.885 272.925C546.294 273.504 545.546 275.407 545.224 277.154C544.902 278.901 544.508 280.53 544.348 280.774C543.296 282.386 542.06 285.421 541.109 288.736C540.387 291.247 539.259 292.894 537.862 293.474C536.581 294.006 535.737 295.145 535.759 296.311C535.779 297.415 535.448 297.907 534.993 297.448C534.491 296.941 534.117 298.062 533.995 300.44C533.852 303.201 533.537 303.978 532.844 303.278C532.318 302.748 532.238 301.967 532.667 301.544C533.094 301.121 533.205 300.716 532.913 300.646C532.621 300.575 530.098 303.211 527.306 306.503C523.724 310.726 522.237 313.243 522.254 315.056C522.266 316.468 521.873 317.527 521.38 317.408C520.886 317.288 519.382 318.546 518.038 320.202C516.694 321.857 515.15 323.105 514.607 322.974C514.064 322.843 513.479 323.316 513.308 324.024C513.137 324.733 511.672 326.067 510.053 326.988C508.433 327.91 507.234 329.049 507.389 329.521C507.832 330.871 505.168 329.493 503.804 327.666C502.778 326.292 503.072 324.21 505.554 315.275C508.378 305.108 509.061 303.432 512.09 299.22C512.784 298.256 517.064 292.114 521.601 285.571C530.133 273.268 535.005 268.121 547.481 258.226C549.075 256.962 551.428 256.09 552.71 256.29C554.576 256.58 555.017 257.269 554.918 259.753Z" fill="black"/>
</svg>
